<svg xmlns="http://www.w3.org/2000/svg" viewBox="0 0 1024 1024" width="20" height="20">
	<style>
		tspan { white-space:pre }
		.shp0 { fill: #db639b } 
	</style>
	<path id="Layer" fill-rule="evenodd" class="shp0" d="M512 0C579.24 0 645.82 13.24 707.93 38.97C770.05 64.7 826.5 102.42 874.04 149.96C921.58 197.5 959.3 253.95 985.03 316.07C1010.76 378.18 1024 444.76 1024 512C1024 719.08 899.26 905.78 707.93 985.03C516.61 1064.27 296.39 1020.47 149.96 874.04C3.53 727.61 -40.27 507.39 38.97 316.07C118.22 124.74 304.92 0 512 0ZM512 955.73C570.27 955.73 627.97 944.26 681.81 921.96C735.65 899.66 784.56 866.97 825.77 825.77C866.97 784.56 899.66 735.65 921.96 681.81C944.26 627.97 955.73 570.27 955.73 512C955.73 332.53 847.62 170.73 681.81 102.04C516 33.36 325.14 71.33 198.23 198.23C71.33 325.14 33.36 516 102.04 681.81C170.73 847.62 332.53 955.73 512 955.73Z" />
</svg>